<svg width="104" height="26" viewBox="0 0 104 26" fill="none" xmlns="http://www.w3.org/2000/svg">
<path d="M16.998 10.4695C16.998 11.9006 16.6677 13.1114 16.0073 14.1021C15.3468 15.0708 14.279 15.5552 12.804 15.5552C11.3289 15.5552 10.2391 15.0929 9.53459 14.1682C8.83009 13.2435 8.47783 12.1207 8.47783 10.7998C8.47783 8.99446 9.09428 7.53041 10.3272 6.4076C11.5601 5.26277 13.0021 4.69036 14.6533 4.69036C16.2384 4.69036 17.6915 5.28479 19.0124 6.47364C19.6949 7.09009 20.2453 7.99274 20.6636 9.1816C21.0819 10.3705 21.2911 11.7685 21.2911 13.3756C21.2911 16.8761 20.3444 19.7492 18.451 21.9948C16.5577 24.2184 13.9818 25.3302 10.7235 25.3302C7.4651 25.3302 4.88925 24.2184 2.99588 21.9948C1.10252 19.7492 0.155833 16.8982 0.155833 13.4417C0.155833 9.98517 1.10252 7.14513 2.99588 4.92152C4.88925 2.6759 7.4651 1.5531 10.7235 1.5531V4.02988C8.4338 4.02988 6.59548 4.92152 5.20848 6.70481C3.82148 8.46608 3.12798 10.7117 3.12798 13.4417C3.12798 16.1716 3.82148 18.4283 5.20848 20.2115C6.59548 21.9728 8.4338 22.8535 10.7235 22.8535C13.0131 22.8535 14.8514 21.9728 16.2384 20.2115C17.6254 18.4283 18.3189 16.2817 18.3189 13.7719C18.3189 11.2401 17.9557 9.51183 17.2291 8.58717C16.5026 7.64048 15.655 7.16714 14.6863 7.16714C13.7176 7.16714 12.881 7.50839 12.1765 8.19088C11.472 8.87337 11.1197 9.743 11.1197 10.7998C11.1197 11.4602 11.2628 12.0106 11.549 12.451C11.8353 12.8693 12.2536 13.0784 12.804 13.0784C13.8387 13.0784 14.3561 12.2088 14.3561 10.4695H16.998ZM28.4559 22.8535H31.329V25H23.1061V22.8535H25.6489V2.37869H23.1061V0.232142H28.4559V10.1063C30.7236 8.80732 32.7821 8.15786 34.6314 8.15786C36.4807 8.15786 37.7577 8.71926 38.4622 9.84207C39.1887 10.9649 39.5519 12.517 39.5519 14.4984V23.0186H42.2599V24.4056C41.4453 24.9119 40.4986 25.1651 39.4199 25.1651C38.3631 25.1651 37.6476 24.989 37.2733 24.6367C36.9211 24.2625 36.7449 23.668 36.7449 22.8535V14.4984C36.7449 13.2215 36.5798 12.2638 36.2496 11.6254C35.9193 10.9649 35.1598 10.6346 33.9709 10.6346C32.7821 10.6346 30.9437 11.2951 28.4559 12.6161V22.8535ZM48.447 25.3302C46.9279 25.3302 45.739 24.9009 44.8804 24.0423C44.0218 23.1617 43.5925 21.9948 43.5925 20.5418C43.5925 19.0667 44.1649 17.8338 45.3097 16.8431C46.4545 15.8524 48.1497 15.357 50.3954 15.357H53.995V13.6728C53.995 11.6474 53.0263 10.6346 51.0889 10.6346C49.4597 10.6346 47.9626 10.8328 46.5976 11.2291V13.4417H44.286V9.51183C45.2767 9.09353 46.4435 8.76329 47.7865 8.52112C49.1515 8.27894 50.2853 8.15786 51.1879 8.15786C52.9492 8.15786 54.3252 8.66422 55.3159 9.67695C56.3066 10.6677 56.802 11.9996 56.802 13.6728V23.0186H59.5099V24.4056C58.6953 24.9119 57.7597 25.1651 56.7029 25.1651C55.6461 25.1651 54.9306 24.989 54.5564 24.6367C54.1821 24.2845 53.995 23.6901 53.995 22.8535C52.3438 24.5046 50.4944 25.3302 48.447 25.3302ZM48.7442 22.8535C50.6375 22.8535 52.3878 21.7857 53.995 19.6501V17.5366H50.3623C49.0194 17.5366 48.0177 17.8008 47.3572 18.3292C46.7187 18.8576 46.3995 19.5291 46.3995 20.3436C46.3995 21.1362 46.5976 21.7527 46.9939 22.193C47.3902 22.6333 47.9736 22.8535 48.7442 22.8535ZM65.7006 25.3302C64.1815 25.3302 62.9927 24.9009 62.134 24.0423C61.2754 23.1617 60.8461 21.9948 60.8461 20.5418C60.8461 19.0667 61.4185 17.8338 62.5633 16.8431C63.7082 15.8524 65.4034 15.357 67.649 15.357H71.2486V13.6728C71.2486 11.6474 70.2799 10.6346 68.3425 10.6346C66.7133 10.6346 65.2163 10.8328 63.8513 11.2291V13.4417H61.5396V9.51183C62.5303 9.09353 63.6972 8.76329 65.0401 8.52112C66.4051 8.27894 67.5389 8.15786 68.4416 8.15786C70.2029 8.15786 71.5788 8.66422 72.5696 9.67695C73.5603 10.6677 74.0556 11.9996 74.0556 13.6728V23.0186H76.7636V24.4056C75.949 24.9119 75.0133 25.1651 73.9566 25.1651C72.8998 25.1651 72.1843 24.989 71.81 24.6367C71.4357 24.2845 71.2486 23.6901 71.2486 22.8535C69.5974 24.5046 67.7481 25.3302 65.7006 25.3302ZM65.9978 22.8535C67.8912 22.8535 69.6414 21.7857 71.2486 19.6501V17.5366H67.616C66.273 17.5366 65.2713 17.8008 64.6108 18.3292C63.9724 18.8576 63.6531 19.5291 63.6531 20.3436C63.6531 21.1362 63.8513 21.7527 64.2476 22.193C64.6438 22.6333 65.2273 22.8535 65.9978 22.8535ZM77.8025 2.37869V0.232142H83.1524V22.8535H86.0255V25H77.7695V22.8535H80.3454V2.37869H77.8025ZM90.0848 22.9195C88.6978 21.2903 88.0043 19.2318 88.0043 16.744C88.0043 14.2563 88.6978 12.2088 90.0848 10.6016C91.4718 8.97244 93.4202 8.15786 95.93 8.15786C98.4398 8.15786 100.388 8.97244 101.775 10.6016C103.162 12.2088 103.856 14.2563 103.856 16.744C103.856 19.2318 103.162 21.2903 101.775 22.9195C100.388 24.5267 98.4398 25.3302 95.93 25.3302C93.4202 25.3302 91.4718 24.5267 90.0848 22.9195ZM92.1653 12.3519C91.2627 13.4967 90.8113 14.9608 90.8113 16.744C90.8113 18.5273 91.2627 19.9914 92.1653 21.1362C93.068 22.281 94.3229 22.8535 95.93 22.8535C97.5372 22.8535 98.7921 22.281 99.6947 21.1362C100.597 19.9914 101.049 18.5273 101.049 16.744C101.049 14.9608 100.597 13.4967 99.6947 12.3519C98.7921 11.2071 97.5372 10.6346 95.93 10.6346C94.3229 10.6346 93.068 11.2071 92.1653 12.3519Z" fill="#6C43E2"/>
</svg>
